/* XPM */
static char *result[] = {
/* columns rows colors chars-per-pixel */
"32 32 15 1 ",
"  c #303020",
". c #205828",
"X c #407838",
"o c #604040",
"O c #805830",
"+ c #A06848",
"@ c #B05860",
"# c #78B850",
"$ c #D88828",
"% c #C08858",
"& c #F8D058",
"* c #307880",
"= c #F0D8A0",
"- c #D0F8A8",
"; c None",
/* pixels */
";;;;;;;;;;;;;;;;;;;;;;;;;;;;;;;;",
";;;;;;;;;@$&;;;;;;;;;;;;;;;;;;;;",
";;;;$=&;;@&&&;;;;;;;;;;;;;;;;;;;",
";;;;$===&*@$&$;;;;;;;;;;;;;;;;;;",
";;;;;$=@== @$&;;;;;;;;;;;;;;;;;;",
";;;;;;$$@=&&&&$@;;;&$@;;;;;;;;;;",
";;;;;;@$$&&&&&&@;;&&&@;;&=$;;;;;",
";;;@@;@&&==& && @$&$@*&===$;;;;;",
";;@@@ &&&=== ==&@&$@ ==@=$;;;;;;",
";;@&$@$&&=====&@$&&&&=@$$;;;;;;;",
";;@&@ @&&&==&&$$&&&&&&$$@;;;;;;;",
";;;    @$&$$@@@ && &==&&@;@@;;;;",
";;#XX..X@@@@..@&== ===&&& @@@;;;",
";X#.#XXX#X..X.@=&=====&&$@$&@;;;",
";;X.XXX.X#.X#X..$&&==&&&@ @&@;;;",
";;XXXXX.X#..-X.X@@@$$&$@    ;;;;",
";;;;O;X;XX..XX.#...@@@@.#XOXX;;;",
";;;O%O;;;;XX.X.#XXX....XXO%O;;;;",
";;O%++o;;;;;;;;;;;XX#XX;O%++O;;;",
"O%o%=+o+%%o%++%%%%%+++++O+=Oo%;;",
"Ooo%o+oOOOoOOOOOOOOOOOOOo+ OoO;;",
"   ++O  OOOOO+%++OOOOOoo ++O  ;;",
";;O++O ;;;;;;;;;;;;;;;;; ++O ;;;",
"%OO++Oo%%++++%%%++++++%%o+OO %;;",
"Ooo+=OooooOOOOOOOOOOOooooO=O O;;",
"Ooo+oO ooOOooXOOOOOO.OOo OoOoO;;",
"OooOOo  X . .#.  .  #    OOO ;;;",
";XoOOo .X.#.X-..X.XX# .X OOooX;;",
";X#-Oo .#X-XX#.#XX-X#X.- #Xo X;;",
";Xo#XOXX#.#XXX.-X.#X.X##X.#o #;;",
";XXXXXXXX.X....XX..X..XX....XX;;",
";;;;;;;;;;;;;;;;;;;;;;;;;;;;;;;;"
};
