/* XPM */
static char *result[] = {
/* columns rows colors chars-per-pixel */
"32 32 3 1 ",
"  c #508838",
". c #60A048",
"X c #78B048",
/* pixels */
"  ..      ..    ..  ..  ....  ..",
"  ..      ..    ..  ..  ....  ..",
"  ....XX....    ..    ....      ",
"  ....XX....    ..    ....      ",
"....XX..      ..  ..      ..XX  ",
"....XX..      ..  ..      ..XX  ",
"    ..    ....XX    ....  XX  ..",
"    ..    ....XX    ....  XX  ..",
"    ..  XX          ..          ",
"    ..  XX          ..          ",
"....      ..  ....  ....    ....",
"....      ..  ....  ....    ....",
"    ..  ..      XX..      XX    ",
"    ..  ..      XX..      XX    ",
"..      ..    ......  ..      ..",
"..      ..    ......  ..      ..",
"  ..XX..        ..  XX..    ..  ",
"  ..XX..        ..  XX..    ..  ",
"..  ..    XX        ..          ",
"..  ..    XX        ..          ",
"..XX  ..XX..      ..    XX  ..  ",
"..XX  ..XX..      ..    XX  ..  ",
"  ......  ..  XX  ..  XX....  ..",
"  ......  ..  XX  ..  XX....  ..",
"  ..      ....      ......  ..  ",
"  ..      ....      ......  ..  ",
"  ..  ..  ..    ..  ..  ..XX..  ",
"  ..  ..  ..    ..  ..  ..XX..  ",
"..      ..XX..  ..  ..        ..",
"..      ..XX..  ..  ..        ..",
"  ..    XX    ..  ..    ..  ..  ",
"  ..    XX    ..  ..    ..  ..  "
};
