/* XPM */
static char *result[] = {
/* columns rows colors chars-per-pixel */
"32 32 12 1 ",
"  c #181818",
". c #303048",
"X c #005840",
"o c #484860",
"O c #606078",
"+ c #008870",
"@ c #787890",
"# c #08C0A8",
"$ c #9090A8",
"% c #80E0D0",
"& c #B0F8F8",
"* c None",
/* pixels */
"********************************",
"********************************",
"********************************",
"********************************",
"********************************",
"********************************",
"********************************",
"********************************",
"********************************",
"******* . ****..oo..**** . *****",
"*******.$$.*.oO@$$@Oo.*.$$.*****",
"*******.$$$.o@$$$$$$@o.$$$.*****",
"******* @$$O@$$$$$$$$@O$$@ *****",
"******* O@@O$$$$$$$$$$O@@O *****",
"******** OOo$$$$$$$$$$oOO ******",
"********* oO$$$$$$$$$$Oo *******",
"*********.o@$$$$$$$$$$@o.*******",
"*********.O$$$$$##$$$$$O.*******",
"********* o@$$$+&&+$$$@o *******",
"********* .O@$+&&&&+$@O. *******",
"*********  ooO+&&&&+Ooo  *******",
"**********  .oX%&&%Xo.  ********",
"***********   X+##+X   *********",
"*************  X++X  ***********",
"**************      ************",
"********************************",
"********************************",
"********************************",
"********************************",
"********************************",
"********************************",
"********************************"
};
