/* XPM */
static char *result[] = {
/* columns rows colors chars-per-pixel */
"32 32 10 1 ",
"  c #212910",
". c #7B3100",
"X c #4A214A",
"o c #A54200",
"O c #C65A00",
"+ c #EF7B00",
"@ c #008431",
"# c #00B539",
"$ c #FFAD39",
"% c None",
/* pixels */
"%%%%%%%%%%%%%%%%%%%%%%%%%%%%%%%%",
"%%%%%%%%%%%%%%%%%%%%%%%%%%%%%%%%",
"%%%%%%%%%%%%%%%%%%%%%%%%%%%%%%%%",
"%%%%%%%%%%%%%%%%%%%%%%%%%%%%%%%%",
"%%%%%%%%%%%%%%%%%%%%%%%%%%%%%%%%",
"%%%%%%%%%%%%%%%%%%%%%%%%%%%%%%%%",
"%%%%%%%%%%%%%%%%%%%%%%%%%%%%%%%%",
"%%%%%%%%%%%%%%%%%%%%%%%%%%%%%%%%",
"%%%%%%%%%%%%%%%%%%%%%%%%%%%%%%%%",
"%%%%%%%%%%%%%%%%  %%%%%%%%%%%%%%",
"%%%%%%%%%%%%%%%% @  %%%%%%%%%%%%",
"%%%%%%%%%%%%%%%% @## %%%%%%%%%%%",
"%%%%%%%%%%%%%%..O.@@# %%%%%%%%%%",
"%%%%%%%%%%%%%.OO+O.#@ %%%%%%%%%%",
"%%%%%%%%%%%%.++$OOO  %%%%%%%%%%%",
"%%%%%%%%%%%%.$+OOooX%%%%%%%%%%%%",
"%%%%%%%%%%%.+$$+OO.X%%%%%%%%%%%%",
"%%%%%%%%%%.+$+OOOoX%%%%%%%%%%%%%",
"%%%%%%%%%.o$O++OoX%%%%%%%%%%%%%%",
"%%%%%%%%.oO++OoXX%%%%%%%%%%%%%%%",
"%%%%%%%%.oOOoXX%%%%%%%%%%%%%%%%%",
"%%%%%%%%XoooX%%%%%%%%%%%%%%%%%%%",
"%%%%%%%%%XXX%%%%%%%%%%%%%%%%%%%%",
"%%%%%%%%%%%%%%%%%%%%%%%%%%%%%%%%",
"%%%%%%%%%%%%%%%%%%%%%%%%%%%%%%%%",
"%%%%%%%%%%%%%%%%%%%%%%%%%%%%%%%%",
"%%%%%%%%%%%%%%%%%%%%%%%%%%%%%%%%",
"%%%%%%%%%%%%%%%%%%%%%%%%%%%%%%%%",
"%%%%%%%%%%%%%%%%%%%%%%%%%%%%%%%%",
"%%%%%%%%%%%%%%%%%%%%%%%%%%%%%%%%",
"%%%%%%%%%%%%%%%%%%%%%%%%%%%%%%%%",
"%%%%%%%%%%%%%%%%%%%%%%%%%%%%%%%%"
};
