/* XPM */
static char *result[] = {
/* columns rows colors chars-per-pixel */
"32 32 13 1 ",
"  c #181818",
". c #303048",
"X c #005840",
"o c #484860",
"O c #606078",
"+ c #008870",
"@ c #787890",
"# c #08C0A8",
"$ c #9090A8",
"% c #80E0D0",
"& c #B0F8F8",
"* c #F8F8F8",
"= c None",
/* pixels */
"================================",
"================================",
"================================",
"================================",
"================================",
"================================",
"================================",
"================================",
"================================",
"================================",
"======.o.=====.oo.=====.o.======",
"======.$$.==.o@@@@o.==.$$.======",
"======+O@@..o$$$$$$o..@@O+======",
"======+#+XO@$$$$$$$$@OX+#+======",
"======+&%+XO$$$$$$$$OX+%&+======",
"=======+&#+$$$$$$$$$$+#&+=======",
"========+.O$$$$$$$$$$O.+========",
"=========.$$$o $$ o$$$.=========",
"========.O$$$ *$$* $$$O.========",
"========.o$$$o $$ o$$$o.========",
"======== o@$$$$$$$$$$@o ========",
"======== .o@@@OooO@@@o. ========",
"========  .oOo.**.oOo.  ========",
"=========   .o.@@.o.   =========",
"==========            ==========",
"================================",
"================================",
"================================",
"================================",
"================================",
"================================",
"================================"
};
