/* XPM */
static char *result[] = {
/* columns rows colors chars-per-pixel */
"32 32 15 1 ",
"  c gray9",
". c #181818",
"X c #191919",
"o c #303048",
"O c #005840",
"+ c #484860",
"@ c #606078",
"# c #008870",
"$ c #787890",
"% c #08C0A8",
"& c #9090A8",
"* c #80E0D0",
"= c #B0F8F8",
"- c #F8F8F8",
"; c None",
/* pixels */
";;;;;;;;;;;;;;;;;;;;;;;;;;;;;;;;",
";;;;;;;;;;;;;;;;;;;;;;;;;;;;;;;;",
";;;;;;;;;;;;;;;;;;;;;;;;;;;;;;;;",
";;;;;;;;;;;;;;;;;;;;;;;;;;;;;;;;",
";;;;;;;;;;;;;;;;;;;;;;;;;;;;;;;;",
";;;;;;;;;;;;;;;;;;;;;;;;;;;;;;;;",
";;;;;;;;;;;;;;;;;;;;;;;;;;;;;;;;",
";;;;;;;;;;;;;;;;;;;;;;;;;;;;;;;;",
";;;;;;;;o++;;;;;;;;;;;;;;;;;;;;;",
";;;;;;;;o&@+ooooo;;;;;;;;;;;;;;;",
";;;;;;;;o&$o+@$$@...;;;;;;;;;;;;",
";;;;;;;;o$o@$&&&.&&.;;;;;;;;;;;;",
";;;;;;;;;o$&&&&+&$@.o;;;;;;;;;;;",
";;;;;;;;o+&&&&+$#%%.@o;;##;;;;;;",
";;;;;;;;.@&&&&@O%*=.$+o#==#;;;;;",
";;;;;;;o.$&&&&&#*=.$$@o===%O;;;;",
";;;;;;;o.&.+&&&@+o+@$@++==%O;;;;",
";;;;;;;o+&-.&&&&$@@@$@+o**%O;;;;",
";;;;;;;o@$.+&&&&&&$$$@+.%%#O;;;;",
";;;;;;;o+@&&&&&&&&&&@@+O##O;;;;;",
";;;;;;;.-+$&&&&&&&$@++o.... ;;;;",
";;;;;;;.+o+@@@@@@@++oo....;;;;;;",
";;;;;;;...oo++++oooo....;;;;;;;;",
";;;;;;;;;X............;;;;;;;;;;",
";;;;;;;;;;;;;;;;;;;;;;;;;;;;;;;;",
";;;;;;;;;;;;;;;;;;;;;;;;;;;;;;;;",
";;;;;;;;;;;;;;;;;;;;;;;;;;;;;;;;",
";;;;;;;;;;;;;;;;;;;;;;;;;;;;;;;;",
";;;;;;;;;;;;;;;;;;;;;;;;;;;;;;;;",
";;;;;;;;;;;;;;;;;;;;;;;;;;;;;;;;",
";;;;;;;;;;;;;;;;;;;;;;;;;;;;;;;;",
";;;;;;;;;;;;;;;;;;;;;;;;;;;;;;;;"
};
