/* XPM */
static char *result[] = {
/* columns rows colors chars-per-pixel */
"32 32 12 1 ",
"  c #508838",
". c #60A048",
"X c #78B048",
"o c #785030",
"O c #987048",
"+ c #583818",
"@ c #C09850",
"# c #D8B868",
"$ c #A88050",
"% c #387820",
"& c #305820",
"* c #98C848",
/* pixels */
"  ..      ..    ..      ....  ..",
"  ..      ..    ..      ....  ..",
"  ....XX....    ..    ....      ",
"  ....XX....    ..    ....      ",
"....XX..  ooooOOOOoo++    ..XX  ",
"....XX..  ooooOOOOoo++    ..XX  ",
"    ..  OO@@@@##$$$$OOoo  XX  ..",
"    ..  OO@@@@##$$$$OOoo  XX  ..",
"    ..OO####@@@@@@$$OOOOoo      ",
"    ..OO####@@@@@@$$OOOOoo      ",
"....OO########@@$$@@@@@@OO++..  ",
"....OO########@@$$@@@@@@OO++..  ",
"  OOOO####@@####OO@@@@##OO++%%  ",
"  OOOO####@@####OO@@@@##OO++%%  ",
"..oo@@@@########@@@@@@OOoooo++%%",
"..oo@@@@########@@@@@@OOoooo++%%",
"&&oo@@####@@$$@@####$$OOoooo++%%",
"&&oo@@####@@$$@@####$$OOoooo++%%",
"oo..##@@$$@@$$$$ooOO$$oooooo++&&",
"oo..##@@$$@@$$$$ooOO$$oooooo++&&",
"%%..OO@@$$@@$$OOooOOOOOOOOoo++&&",
"%%..OO@@$$@@$$OOooOOOOOOOOoo++&&",
"&&%%**....$$OOooOOOOOOOOoooo&&%%",
"&&%%**....$$OOooOOOOOOOOoooo&&%%",
"  ..%%%%$$OOOOooOOOOOO$$oo++%%%%",
"  ..%%%%$$OOOOooOOOOOO$$oo++%%%%",
"  ..  ..  **OO..ooOO$$++&&%%%%  ",
"  ..  ..  **OO..ooOO$$++&&%%%%  ",
"..XX  %%..XX&&  %%oo%%%%%%%%  ..",
"..XX  %%..XX&&  %%oo%%%%%%%%  ..",
"  ..    XX    ..  ..    ..  ....",
"  ..    XX    ..  ..    ..  ...."
};
